<?xml version="1.0" encoding="UTF-8" standalone="no"?>
<!-- Generator: Adobe Illustrator 24.1.1, SVG Export Plug-In . SVG Version: 6.00 Build 0)  -->

<svg
   xmlns:dc="http://purl.org/dc/elements/1.1/"
   xmlns:cc="http://creativecommons.org/ns#"
   xmlns:rdf="http://www.w3.org/1999/02/22-rdf-syntax-ns#"
   xmlns:svg="http://www.w3.org/2000/svg"
   xmlns="http://www.w3.org/2000/svg"
   xmlns:sodipodi="http://sodipodi.sourceforge.net/DTD/sodipodi-0.dtd"
   xmlns:inkscape="http://www.inkscape.org/namespaces/inkscape"
   version="1.1"
   id="Calque_1"
   x="0px"
   y="0px"
   viewBox="0 0 133.3 22.700002"
   xml:space="preserve"
   sodipodi:docname="logo_tweag_black.svg"
   width="133.3"
   height="22.700001"
   inkscape:version="0.92.4 (5da689c313, 2019-01-14)"><metadata
   id="metadata40"><rdf:RDF><cc:Work
       rdf:about=""><dc:format>image/svg+xml</dc:format><dc:type
         rdf:resource="http://purl.org/dc/dcmitype/StillImage" /><dc:title></dc:title></cc:Work></rdf:RDF></metadata><defs
   id="defs38">
	
	
	
	
	
	
	
	
	
	
	
	
	
	
	
</defs><sodipodi:namedview
   pagecolor="#ffffff"
   bordercolor="#666666"
   borderopacity="1"
   objecttolerance="10"
   gridtolerance="10"
   guidetolerance="10"
   inkscape:pageopacity="0"
   inkscape:pageshadow="2"
   inkscape:window-width="3840"
   inkscape:window-height="2098"
   id="namedview36"
   showgrid="false"
   inkscape:pagecheckerboard="true"
   fit-margin-top="0"
   fit-margin-left="0"
   fit-margin-right="0"
   fit-margin-bottom="0"
   inkscape:zoom="5.8036106"
   inkscape:cx="37.907437"
   inkscape:cy="11.3"
   inkscape:window-x="0"
   inkscape:window-y="2222"
   inkscape:window-maximized="1"
   inkscape:current-layer="Calque_1" />
<style
   type="text/css"
   id="style2">
	.st0{fill-rule:evenodd;clip-rule:evenodd;}
</style>
<path
   style="clip-rule:evenodd;fill-rule:evenodd"
   inkscape:connector-curvature="0"
   id="path6"
   d="m 16.1,0 v 0 h 6.6 v 5.7 h -6.6 c -1,0 -1.9,0.8 -1.9,1.9 V 22.7 H 8.5 v -15.1 0 c 0,-1 0.8,-1.9 1.9,-1.9 h 0.5 1.4 c 1,0 1.9,-0.8 1.9,-1.9 V 1.9 C 14.2,0.8 15,0 16.1,0 Z"
   class="st0" /><polygon
   style="clip-rule:evenodd;fill-rule:evenodd"
   id="polygon8"
   points="0,0 8.5,0 8.5,5.7 0,5.7 "
   class="st0" /><path
   style="clip-rule:evenodd;fill-rule:evenodd"
   inkscape:connector-curvature="0"
   id="path10"
   d="M 53.9,15.1 V 0 H 48.2 V 17 H 52 c 1,0 1.9,-0.8 1.9,-1.9 z"
   class="st0" /><path
   style="clip-rule:evenodd;fill-rule:evenodd"
   inkscape:connector-curvature="0"
   id="path12"
   d="m 33.1,22.7 v 0 h 3.8 V 17 h -3.8 c -1,0 -1.9,-0.8 -1.9,-1.9 V 0 h -5.7 v 15.1 0 c 0,1 0.8,1.9 1.9,1.9 h 0.5 1.4 c 1,0 1.9,0.8 1.9,1.9 v 1.9 c 0,1 0.8,1.9 1.9,1.9 z"
   class="st0" /><path
   style="clip-rule:evenodd;fill-rule:evenodd"
   inkscape:connector-curvature="0"
   id="path14"
   d="m 44.4,22.7 v 0 h 3.8 V 17 h -3.8 c -1,0 -1.9,-0.8 -1.9,-1.9 V 0 h -5.7 v 15.1 0 c 0,1 0.8,1.9 1.9,1.9 h 0.5 1.4 c 1,0 1.9,0.8 1.9,1.9 v 1.9 c 0,1 0.9,1.9 1.9,1.9 z"
   class="st0" /><path
   style="clip-rule:evenodd;fill-rule:evenodd"
   inkscape:connector-curvature="0"
   id="path16"
   d="m 104.9,7.6 v 15.1 h -5.7 v -17 h 3.8 c 1,0 1.9,0.8 1.9,1.9 z"
   class="st0" /><path
   style="clip-rule:evenodd;fill-rule:evenodd"
   inkscape:connector-curvature="0"
   id="path18"
   d="m 89.8,0 v 0 h 7.6 c 1,0 1.9,0.8 1.9,1.9 v 3.8 h -9.4 c -1,0 -1.9,0.8 -1.9,1.9 v 15.1 h -5.7 v -15.1 0 c 0,-1 0.8,-1.9 1.9,-1.9 h 0.5 1.3 c 1,0 1.9,-0.8 1.9,-1.9 V 1.9 C 87.9,0.8 88.7,0 89.8,0 Z"
   class="st0" /><rect
   style="clip-rule:evenodd;fill-rule:evenodd"
   id="rect20"
   height="3.8"
   width="15.8"
   class="st0"
   y="13.2"
   x="86.199997" /><path
   style="clip-rule:evenodd;fill-rule:evenodd"
   inkscape:connector-curvature="0"
   id="path22"
   d="m 64.3,22.7 v 0 H 79.4 V 17 H 64.3 c -1,0 -1.9,-0.8 -1.9,-1.9 V 13.2 5.7 h -3.8 c -1,0 -1.9,0.8 -1.9,1.9 v 5.7 1.9 0 c 0,1 0.8,1.9 1.9,1.9 h 0.5 1.4 c 1,0 1.9,0.8 1.9,1.9 v 1.9 c 0,0.9 0.8,1.8 1.9,1.8 z"
   class="st0" /><path
   style="clip-rule:evenodd;fill-rule:evenodd"
   inkscape:connector-curvature="0"
   id="path24"
   d="M 79.4,0 H 64.3 c -1,0 -1.9,0.8 -1.9,1.9 v 3.8 h 17 c 0,0 0,-5.7 0,-5.7 z"
   class="st0" /><polygon
   style="clip-rule:evenodd;fill-rule:evenodd"
   id="polygon26"
   points="60.4,9.4 76.5,9.4 76.5,13.2 60.4,13.2 "
   class="st0" /><path
   style="clip-rule:evenodd;fill-rule:evenodd"
   inkscape:connector-curvature="0"
   id="path28"
   d="m 115.3,22.7 v 0 h 10.4 c 1,0 1.9,-0.8 1.9,-1.9 V 17 h -12.3 c -1,0 -1.9,-0.8 -1.9,-1.9 V 13.2 5.7 h -3.8 c -1,0 -1.9,0.8 -1.9,1.9 v 5.7 1.9 0 c 0,1 0.8,1.9 1.9,1.9 h 0.5 1.4 c 1,0 1.9,0.8 1.9,1.9 v 1.9 c 0,0.9 0.8,1.8 1.9,1.8 z"
   class="st0" /><path
   style="clip-rule:evenodd;fill-rule:evenodd"
   inkscape:connector-curvature="0"
   id="path30"
   d="m 130.4,0 h -15.1 c -1,0 -1.9,0.8 -1.9,1.9 v 3.8 h 17 z"
   class="st0" /><path
   style="clip-rule:evenodd;fill-rule:evenodd"
   inkscape:connector-curvature="0"
   id="path32"
   d="m 127.6,13.2 h -8.5 V 9.4 h 12.3 c 1,0 1.9,0.9 1.9,1.9 v 1.9 3.8 h -5.7 c 0,0 0,-3.8 0,-3.8 z"
   class="st0" />
</svg>