<svg width="520" height="400" xmlns="http://www.w3.org/2000/svg" preserveAspectRatio="xMidYMid meet">
 <metadata>Created by potrace 1.15, written by Peter Selinger 2001-2017</metadata>

 <g>
  <title>background</title>
  <rect fill="none" id="canvas_background" height="402" width="522" y="-1" x="-1"/>
 </g>
 <g>
  <title>Layer 1</title>
  <g id="svg_1" fill="#000000" transform="translate(0,512) scale(0.10000000149011612,-0.10000000149011612) ">
   <path id="svg_2" d="m10,4896.689087c0,-5 269,-412 599,-906l598,-898l-598,-897c-330,-493 -599,-901 -599,-907c0,-7 158,-9 458,-7l459,2l602,904l603,904l-604,905l-603,906l-457,1c-252,0 -458,-3 -458,-7z"/>
   <path id="svg_3" d="m1210,4898.689087c0,-4 270,-411 600,-905l600,-900l-600,-900c-330,-495 -600,-902 -600,-905c0,-3 207,-5 460,-5l459,0l367,550c201,303 369,552 374,555c4,2 173,-245 376,-550l369,-554l458,-1c251,0 457,3 457,7c0,5 -541,819 -1202,1810l-1201,1803l-459,0c-252,0 -458,-2 -458,-5z"/>
   <path id="svg_4" d="m3127,3822.689087c11,-16 103,-155 204,-309l184,-279l808,0l807,-1l0,310l0,310l-1011,0l-1011,0l19,-31z"/>
   <path id="svg_5" d="m3722,2938.689087c2,-8 91,-147 198,-309l195,-295l508,0l507,-1l0,310l0,310l-706,0c-621,0 -705,-2 -702,-15z"/>
  </g>
 </g>
</svg>
